<svg xmlns="http://www.w3.org/2000/svg" width="28.03" height="28.031" viewBox="0 0 28.03 28.031">
  <defs>
    <style>
      .cls-1 {
        fill: #2c3487;
        fill-rule: evenodd;
      }
    </style>
  </defs>
  <path id="add.svg" class="cls-1" d="M1086.1,409.1a14,14,0,1,0,19.8,0A14,14,0,0,0,1086.1,409.1Zm16.5,8.734a1.167,1.167,0,0,1,0,2.333h-5.44V425.6a1.165,1.165,0,1,1-2.33,0v-5.433h-5.43a1.167,1.167,0,1,1,0-2.333c0.25,0,5.43,0,5.43,0V412.4a1.165,1.165,0,1,1,2.33,0c0.01,0.253,0,5.434,0,5.434h5.44Z" transform="translate(-1082 -405)"/>
</svg>
