<svg id="behance-logo.svg" xmlns="http://www.w3.org/2000/svg" width="30" height="30" viewBox="0 0 30 30">
  <defs>
    <style>
      .cls-1 {
        fill: #2c3487;
        fill-rule: evenodd;
      }
    </style>
  </defs>
  <g>
    <path id="Path_226" data-name="Path 226" class="cls-1" d="M1098.74,27.428c0-1.415-.96-1.415-0.96-1.415h-3.96v3.037h3.71C1098.17,29.049,1098.74,28.843,1098.74,27.428Z" transform="translate(-1086.66 -15.531)"/>
    <path id="Path_227" data-name="Path 227" class="cls-1" d="M1097.78,31.146h-3.96v3.637h3.78a1.528,1.528,0,0,0,1.61-1.768C1099.21,31.127,1097.78,31.146,1097.78,31.146Z" transform="translate(-1086.66 -15.531)"/>
    <path id="Path_228" data-name="Path 228" class="cls-1" d="M1107.92,29.049a2.444,2.444,0,0,0-2.4,2.1h4.47A2.021,2.021,0,0,0,1107.92,29.049Z" transform="translate(-1086.66 -15.531)"/>
    <path id="Path_229" data-name="Path 229" class="cls-1" d="M1101.67,15.541a15,15,0,1,0,15,15A15,15,0,0,0,1101.67,15.541Zm3.27,8.854h5.61v1.675h-5.61V24.4Zm-2.84,8.789c0,4.153-4.32,4.017-4.32,4.017h-7.08V23.594h7.08c2.15,0,3.85,1.188,3.85,3.623a2.364,2.364,0,0,1-2.08,2.589C1102.29,29.806,1102.1,33.184,1102.1,33.184Zm5.85,2.146c2.26,0,2.18-1.464,2.18-1.464h2.39c0,3.885-4.65,3.619-4.65,3.619a4.827,4.827,0,0,1-5.23-5.2s-0.01-5.228,5.23-5.228c5.5,0,4.73,5.906,4.73,5.906h-7.05A2.217,2.217,0,0,0,1107.95,35.331Z" transform="translate(-1086.66 -15.531)"/>
  </g>
</svg>
