<svg xmlns="http://www.w3.org/2000/svg" width="24.38" height="24.37" viewBox="0 0 24.38 24.37">
  <defs>
    <style>
      .cls-1 {
        fill: #212121;
        fill-rule: evenodd;
        opacity: 0.3;
      }
    </style>
  </defs>
  <path id="collapsed.svg" class="cls-1" d="M1344.23,1201.77a12.189,12.189,0,1,0-8.62-3.57A11.734,11.734,0,0,0,1344.23,1201.77Zm6.32-14.71a1.065,1.065,0,0,1,.36.76,1.092,1.092,0,0,1-.36.82l-5.5,5.51a1.044,1.044,0,0,1-1.59-.06l-5.56-5.56a0.962,0.962,0,0,1,0-1.58,1.007,1.007,0,0,1,1.58,0l4.75,4.74,4.74-4.63a1.02,1.02,0,0,1,1.58,0h0Z" transform="translate(-1332.03 -1177.41)"/>
</svg>
