<svg xmlns="http://www.w3.org/2000/svg" xmlns:xlink="http://www.w3.org/1999/xlink" width="36" height="60" viewBox="0 0 36 60">
  <defs>
    <style>
      .cls-1 {
        fill-rule: evenodd;
        fill: url(#linear-gradient);
      }
    </style>
    <linearGradient id="linear-gradient" x1="672" y1="425" x2="672" y2="485" gradientUnits="userSpaceOnUse">
      <stop offset="NaN" stop-color="#c11f2f"/>
      <stop offset="Infinity" stop-color="#103380"/>
    </linearGradient>
  </defs>
  <path id="Phone.svg" class="cls-1" d="M680.308,485H663.692A9.621,9.621,0,0,1,654,475.455V434.546A9.621,9.621,0,0,1,663.692,425h16.616A9.62,9.62,0,0,1,690,434.546v40.909A9.62,9.62,0,0,1,680.308,485Zm0-55.909H663.692a5.509,5.509,0,0,0-5.342,4.091h27.3A5.512,5.512,0,0,0,680.308,429.091Zm5.538,8.182H658.153V470h27.693V437.273Zm0,36.818H658.153v1.364a5.5,5.5,0,0,0,5.539,5.454h16.616a5.5,5.5,0,0,0,5.538-5.454v-1.364Zm-14.539,5.454a2.045,2.045,0,1,1,2.077-2.045A2.061,2.061,0,0,1,671.307,479.545Z" transform="translate(-654 -425)"/>
</svg>
