<svg xmlns="http://www.w3.org/2000/svg" xmlns:xlink="http://www.w3.org/1999/xlink" width="51" height="63" viewBox="0 0 51 63">
  <defs>
    <style>
      .cls-1 {
        fill-rule: evenodd;
        fill: url(#linear-gradient);
      }
    </style>
    <linearGradient id="linear-gradient" x1="272.5" y1="424" x2="272.5" y2="487" gradientUnits="userSpaceOnUse">
      <stop offset="NaN" stop-color="#c11f2f"/>
      <stop offset="Infinity" stop-color="#103380"/>
    </linearGradient>
  </defs>
  <path id="Address.svg" class="cls-1" d="M294.669,461.666c-0.059.119-.124,0.236-0.193,0.349-0.148.24-3.654,5.924-7.749,11.71C278.867,484.828,275.559,487,272.5,487c-1.962,0-6.554,0-21.974-24.981a3.809,3.809,0,0,1-.2-0.353c-1.519-3.073-3.332-7.631-3.332-11.893C247,436.043,258.916,424,272.5,424S298,436.043,298,449.773C298,454.035,296.189,458.593,294.669,461.666ZM272.5,428.3c-11.346,0-21.25,10.011-21.25,21.478,0,3.33,1.5,7.183,2.882,9.973,0,0,14.171,22.958,18.368,22.958,4.231,0,18.367-22.958,18.367-22.958,1.378-2.79,2.882-6.643,2.882-9.973C293.75,438.306,283.846,428.3,272.5,428.3Zm0,31.5a11.455,11.455,0,1,1,11.333-11.455A11.408,11.408,0,0,1,272.5,459.8Zm0-18.614a7.159,7.159,0,1,0,7.082,7.159A7.122,7.122,0,0,0,272.5,441.182Z" transform="translate(-247 -424)"/>
</svg>
