<svg xmlns="http://www.w3.org/2000/svg" width="20" height="26" viewBox="0 0 20 26">
  <defs>
    <style>
      .cls-1 {
        fill: #c11f2f;
        fill-rule: evenodd;
      }
    </style>
  </defs>
  <path id="document.svg" class="cls-1" d="M891,572.177A3.8,3.8,0,0,1,887.153,576H874.845A3.8,3.8,0,0,1,871,572.177V553.824A3.8,3.8,0,0,1,874.845,550h5.54a2.029,2.029,0,0,1,.371.043A0.9,0.9,0,0,1,881,550a0.722,0.722,0,0,1,.658.366,4.47,4.47,0,0,1,.418.246l8.308,8.259a1.9,1.9,0,0,1,.339.474,0.729,0.729,0,0,1,.277.6,0.793,0.793,0,0,1-.031.172,3.22,3.22,0,0,1,.031.44v11.624Zm-9.231-19.73v4.435a2.358,2.358,0,0,0,2.307,2.294h4.462Zm7.692,8.259h-5.385a3.8,3.8,0,0,1-3.846-3.824v-5.353h-5.385a2.36,2.36,0,0,0-2.307,2.295v18.353a2.359,2.359,0,0,0,2.307,2.294h12.308a2.36,2.36,0,0,0,2.308-2.294V560.706Zm-4.154,4.894-4.153,4.13a1.955,1.955,0,0,1-1.386.611,1.5,1.5,0,0,1-1.384-.611l-1.692-1.683a0.735,0.735,0,0,1,0-1.07,0.747,0.747,0,0,1,1.077,0l1.692,1.682a0.479,0.479,0,0,0,.307.153c0.154,0,.309,0,0.309-0.153l4.154-4.129a0.745,0.745,0,0,1,1.076,0A0.735,0.735,0,0,1,885.307,565.6Z" transform="translate(-871 -550)"/>
</svg>
