<svg id="dribbble-logo.svg" xmlns="http://www.w3.org/2000/svg" width="30" height="30" viewBox="0 0 30 30">
  <defs>
    <style>
      .cls-1 {
        fill: #2c3487;
        fill-rule: evenodd;
      }
    </style>
  </defs>
  <g>
    <path id="Path_218" data-name="Path 218" class="cls-1" d="M1044.02,27.442a60.629,60.629,0,0,0-3.43-5.342,9.387,9.387,0,0,0-5.14,6.472h0.09A35.47,35.47,0,0,0,1044.02,27.442Z" transform="translate(-1029.62 -15.531)"/>
    <path id="Path_219" data-name="Path 219" class="cls-1" d="M1050.8,23.516a9.376,9.376,0,0,0-8.3-2.086,50.005,50.005,0,0,1,3.45,5.411A10.773,10.773,0,0,0,1050.8,23.516Z" transform="translate(-1029.62 -15.531)"/>
    <path id="Path_220" data-name="Path 220" class="cls-1" d="M1047.33,29.656c0.06,0.149.12,0.3,0.19,0.448a17.469,17.469,0,0,1,2.13-.124,23.249,23.249,0,0,1,4.34.419,9.254,9.254,0,0,0-2.07-5.711,12.784,12.784,0,0,1-5.19,3.654C1046.94,28.774,1047.14,29.213,1047.33,29.656Z" transform="translate(-1029.62 -15.531)"/>
    <path id="Path_221" data-name="Path 221" class="cls-1" d="M1045.26,30.585c0.1-.033.21-0.063,0.31-0.094-0.22-.5-0.46-1-0.72-1.5a35.061,35.061,0,0,1-9.36,1.333l-0.25,0v0.231a9.31,9.31,0,0,0,2.36,6.207A14.954,14.954,0,0,1,1045.26,30.585Z" transform="translate(-1029.62 -15.531)"/>
    <path id="Path_222" data-name="Path 222" class="cls-1" d="M1044.62,15.541a15,15,0,1,0,15,15A15,15,0,0,0,1044.62,15.541Zm0,26.088a11.088,11.088,0,1,1,11.1-11.088A11.109,11.109,0,0,1,1044.62,41.63Z" transform="translate(-1029.62 -15.531)"/>
    <path id="Path_223" data-name="Path 223" class="cls-1" d="M1048.13,31.694a41.189,41.189,0,0,1,1.8,6.578,9.38,9.38,0,0,0,3.94-6.181,13.971,13.971,0,0,0-3.85-.538A12.477,12.477,0,0,0,1048.13,31.694Z" transform="translate(-1029.62 -15.531)"/>
    <path id="Path_224" data-name="Path 224" class="cls-1" d="M1046.25,32.158a12.911,12.911,0,0,0-7.35,5.815,9.368,9.368,0,0,0,9.34,1.222,39.68,39.68,0,0,0-1.98-7.041C1046.25,32.156,1046.25,32.157,1046.25,32.158Z" transform="translate(-1029.62 -15.531)"/>
  </g>
</svg>
