<svg xmlns="http://www.w3.org/2000/svg" xmlns:xlink="http://www.w3.org/1999/xlink" width="50" height="50" viewBox="0 0 50 50">
  <defs>
    <style>
      .cls-1 {
        fill-rule: evenodd;
        fill: url(#linear-gradient);
      }
    </style>
    <linearGradient id="linear-gradient" x1="1072" y1="427" x2="1072" y2="477" gradientUnits="userSpaceOnUse">
      <stop offset="NaN" stop-color="#c11f2f"/>
      <stop offset="Infinity" stop-color="#103380"/>
    </linearGradient>
  </defs>
  <path id="Email.svg" class="cls-1" d="M1095.05,454.152a1.958,1.958,0,0,1-1.96-1.953v-4.23l-16.82,12.72a1.093,1.093,0,0,1-.14.1,7.784,7.784,0,0,1-8.26,0c-0.04-.03-0.09-0.062-0.13-0.1l-11.66-8.723a1.952,1.952,0,0,1,2.34-3.126l11.58,8.667a3.879,3.879,0,0,0,3.99,0l17.04-12.886-17.04-13.174a3.9,3.9,0,0,0-3.98,0l-17.59,13.6a3.926,3.926,0,0,0-1.51,3.09v21.046a3.908,3.908,0,0,0,3.9,3.906h24.03a1.953,1.953,0,0,1,0,3.906h-24.03a7.817,7.817,0,0,1-7.81-7.811V448.142a7.859,7.859,0,0,1,3.03-6.18l17.68-13.663a1.325,1.325,0,0,1,.17-0.114,7.764,7.764,0,0,1,8.25,0c0.05,0.035.11,0.073,0.16,0.114l17.68,13.663a7.486,7.486,0,0,1,1.28,1.26,1.943,1.943,0,0,1,.38.378,2.046,2.046,0,0,1,.32.638,7.818,7.818,0,0,1,1.05,3.9V452.2A1.949,1.949,0,0,1,1095.05,454.152Zm-14.27,10.268,5.76-5.757a2.919,2.919,0,0,1,4.12,0l5.77,5.756a1.953,1.953,0,0,1-2.76,2.764l-3.11-3.106v10.969a1.955,1.955,0,0,1-3.91,0V464.078l-3.11,3.106A1.953,1.953,0,1,1,1080.78,464.42Z" transform="translate(-1047 -427)"/>
</svg>
