<svg id="browser" xmlns="http://www.w3.org/2000/svg" xmlns:xlink="http://www.w3.org/1999/xlink" width="58.888" height="62.555" viewBox="0 0 58.888 62.555">
  <defs>
    <linearGradient id="linear-gradient" x1="0.5" x2="0.5" y2="1" gradientUnits="objectBoundingBox">
      <stop offset="0" stop-color="#c11f2f"/>
      <stop offset="1" stop-color="#103380"/>
    </linearGradient>
  </defs>
  <g id="Group_5789" data-name="Group 5789">
    <g id="Group_5788" data-name="Group 5788">
      <path id="Path_2880" data-name="Path 2880" d="M52.754,0H6.134A6.341,6.341,0,0,0,0,6.516V56.039a6.341,6.341,0,0,0,6.134,6.516H52.754a6.341,6.341,0,0,0,6.134-6.516V6.516A6.341,6.341,0,0,0,52.754,0Zm3.68,56.039a3.8,3.8,0,0,1-3.68,3.91H6.134a3.8,3.8,0,0,1-3.68-3.91V6.516a3.8,3.8,0,0,1,3.68-3.91H52.754a3.8,3.8,0,0,1,3.68,3.91V56.039Z" fill="url(#linear-gradient)"/>
    </g>
  </g>
  <g id="Group_5791" data-name="Group 5791" transform="translate(4.59 10.426)">
    <g id="Group_5790" data-name="Group 5790">
      <rect id="Rectangle_395" data-name="Rectangle 395" width="45.898" height="2.606" fill="url(#linear-gradient)"/>
    </g>
  </g>
  <g id="Group_5793" data-name="Group 5793" transform="translate(5.737 5.213)">
    <g id="Group_5792" data-name="Group 5792">
      <rect id="Rectangle_396" data-name="Rectangle 396" width="2.295" height="2.606" fill="url(#linear-gradient)"/>
    </g>
  </g>
  <g id="Group_5795" data-name="Group 5795" transform="translate(10.327 5.213)">
    <g id="Group_5794" data-name="Group 5794">
      <rect id="Rectangle_397" data-name="Rectangle 397" width="2.295" height="2.606" fill="url(#linear-gradient)"/>
    </g>
  </g>
  <g id="Group_5797" data-name="Group 5797" transform="translate(47.046 5.213)">
    <g id="Group_5796" data-name="Group 5796">
      <rect id="Rectangle_398" data-name="Rectangle 398" width="2.295" height="2.606" fill="url(#linear-gradient)"/>
    </g>
  </g>
  <g id="Group_5799" data-name="Group 5799" transform="translate(8.032 18.245)">
    <g id="Group_5798" data-name="Group 5798">
      <path id="Path_2881" data-name="Path 2881" d="M111.386,149.333H76.962a2.466,2.466,0,0,0-2.295,2.606v5.213a2.466,2.466,0,0,0,2.295,2.606h34.424a2.466,2.466,0,0,0,2.295-2.606v-5.213A2.466,2.466,0,0,0,111.386,149.333Zm0,7.819H76.962v-5.213h34.424Z" transform="translate(-74.667 -149.333)" fill="url(#linear-gradient)"/>
    </g>
  </g>
  <g id="Group_5801" data-name="Group 5801" transform="translate(8.032 32.581)">
    <g id="Group_5800" data-name="Group 5800">
      <path id="Path_2882" data-name="Path 2882" d="M111.386,266.667H76.962a2.466,2.466,0,0,0-2.295,2.606v5.213a2.466,2.466,0,0,0,2.295,2.606h34.424a2.466,2.466,0,0,0,2.295-2.606v-5.213A2.466,2.466,0,0,0,111.386,266.667Zm0,7.819H76.962v-5.213h34.424Z" transform="translate(-74.667 -266.667)" fill="url(#linear-gradient)"/>
    </g>
  </g>
  <g id="Group_5803" data-name="Group 5803" transform="translate(8.032 46.917)">
    <g id="Group_5802" data-name="Group 5802">
      <path id="Path_2883" data-name="Path 2883" d="M84.993,384h-9.18a1.233,1.233,0,0,0-1.147,1.3v3.91a2.466,2.466,0,0,0,2.295,2.606h6.885a2.466,2.466,0,0,0,2.295-2.606V385.3A1.233,1.233,0,0,0,84.993,384Zm-1.147,5.213H76.961v-2.606h6.885Z" transform="translate(-74.666 -384)" fill="url(#linear-gradient)"/>
    </g>
  </g>
  <g id="Group_5805" data-name="Group 5805" transform="translate(21.802 46.917)">
    <g id="Group_5804" data-name="Group 5804">
      <path id="Path_2884" data-name="Path 2884" d="M212.994,384h-9.18a1.233,1.233,0,0,0-1.147,1.3v3.91a2.466,2.466,0,0,0,2.295,2.606h6.885a2.466,2.466,0,0,0,2.295-2.606V385.3A1.233,1.233,0,0,0,212.994,384Zm-1.147,5.213h-6.885v-2.606h6.885Z" transform="translate(-202.667 -384)" fill="url(#linear-gradient)"/>
    </g>
  </g>
  <g id="Group_5807" data-name="Group 5807" transform="translate(44.751 46.917)">
    <g id="Group_5806" data-name="Group 5806">
      <rect id="Rectangle_399" data-name="Rectangle 399" width="2.295" height="2.606" fill="url(#linear-gradient)"/>
    </g>
  </g>
  <g id="Group_5809" data-name="Group 5809" transform="translate(40.161 46.917)">
    <g id="Group_5808" data-name="Group 5808">
      <rect id="Rectangle_400" data-name="Rectangle 400" width="2.295" height="2.606" fill="url(#linear-gradient)"/>
    </g>
  </g>
  <g id="Group_5811" data-name="Group 5811" transform="translate(36.719 52.13)">
    <g id="Group_5810" data-name="Group 5810">
      <rect id="Rectangle_401" data-name="Rectangle 401" width="10.327" height="2.606" fill="url(#linear-gradient)"/>
    </g>
  </g>
</svg>
