<svg xmlns="http://www.w3.org/2000/svg" width="45" height="45" viewBox="0 0 45 45">
  <defs>
    <style>
      .cls-1 {
        fill: #fff;
        fill-rule: evenodd;
      }
    </style>
  </defs>
  <path id="Individual.svg" class="cls-1" d="M743.826,317.073A5.365,5.365,0,0,1,739.683,319H705.336a5.339,5.339,0,0,1-5.22-6.44,22.863,22.863,0,0,1,15.234-17.035,11.953,11.953,0,1,1,14.312-.007,23.026,23.026,0,0,1,2.645,1.062,1.73,1.73,0,0,1,.829.876,22.858,22.858,0,0,1,3.892,2.506,22.4,22.4,0,0,1,7.887,12.726A5.147,5.147,0,0,1,743.826,317.073Zm-12.888-31.12a8.437,8.437,0,1,0-8.862,8.427c0.142,0,.283,0,0.425,0s0.286,0,.429,0A8.448,8.448,0,0,0,730.938,285.953Zm-3.607,29.6h12.352a1.806,1.806,0,0,0,1.409-.654,1.768,1.768,0,0,0,.373-1.51c-2.842-13.35-13.23-14.612-13.23-14.612a19.254,19.254,0,0,0-5.263-.881c-0.157.006-.313,0.009-0.471,0.009s-0.311,0-.466-0.009a19.421,19.421,0,0,0-18.477,15.379,1.838,1.838,0,0,0,.372,1.54,1.788,1.788,0,0,0,1.406.668h12.67S727.215,315.53,727.331,315.554Z" transform="translate(-700.031 -274)"/>
</svg>
