<svg xmlns="http://www.w3.org/2000/svg" width="20" height="20" viewBox="0 0 20 20">
  <defs>
    <style>
      .cls-1 {
        fill: #2c3487;
        fill-rule: evenodd;
      }
    </style>
  </defs>
  <path id="info.svg" class="cls-1" d="M1045.22,524.555a0.413,0.413,0,0,1-.3.117h-5.83a0.382,0.382,0,0,1-.3-0.117,0.4,0.4,0,0,1-.12-0.3V522.17a0.4,0.4,0,0,1,.12-0.3,0.382,0.382,0,0,1,.3-0.117h1.24v-4.171h-1.24a0.383,0.383,0,0,1-.3-0.118,0.4,0.4,0,0,1-.12-0.3v-2.085a0.4,0.4,0,0,1,.12-0.3,0.382,0.382,0,0,1,.3-0.117h4.16a0.413,0.413,0,0,1,.3.117,0.4,0.4,0,0,1,.12.3v6.674h1.25a0.413,0.413,0,0,1,.3.117,0.435,0.435,0,0,1,.11.3v2.085A0.435,0.435,0,0,1,1045.22,524.555Zm-1.67-11.679a0.413,0.413,0,0,1-.3.117h-2.5a0.413,0.413,0,0,1-.3-0.117,0.4,0.4,0,0,1-.12-0.3v-2.085a0.4,0.4,0,0,1,.12-0.3,0.413,0.413,0,0,1,.3-0.117h2.5a0.413,0.413,0,0,1,.3.117,0.4,0.4,0,0,1,.12.3v2.085A0.4,0.4,0,0,1,1043.55,512.876Zm3.47-3.545a10.054,10.054,0,0,0-10.04,0,10.02,10.02,0,0,0-3.64,3.643,10.09,10.09,0,0,0,0,10.049,10.023,10.023,0,0,0,3.64,3.644,10.06,10.06,0,0,0,10.04,0,10.023,10.023,0,0,0,3.64-3.644,10.09,10.09,0,0,0,0-10.049A10.02,10.02,0,0,0,1047.02,509.331Z" transform="translate(-1032 -508)"/>
</svg>
