<svg xmlns="http://www.w3.org/2000/svg" width="16" height="16" viewBox="0 0 16 16">
  <defs>
    <style>
      .cls-1 {
        fill: #afafaf;
        fill-rule: evenodd;
      }
    </style>
  </defs>
  <path id="info.svg" class="cls-1" d="M654.574,420.244a0.325,0.325,0,0,1-.24.094h-4.665a0.323,0.323,0,0,1-.334-0.334v-1.668a0.322,0.322,0,0,1,.095-0.24,0.318,0.318,0,0,1,.239-0.094h1v-3.337h-1a0.322,0.322,0,0,1-.334-0.334v-1.668a0.322,0.322,0,0,1,.334-0.333H653a0.319,0.319,0,0,1,.333.333V418h1a0.32,0.32,0,0,1,.333.334V420A0.326,0.326,0,0,1,654.574,420.244Zm-1.333-9.343A0.323,0.323,0,0,1,653,411h-2a0.322,0.322,0,0,1-.239-0.094,0.329,0.329,0,0,1-.094-0.24v-1.668a0.322,0.322,0,0,1,.333-0.334h2a0.32,0.32,0,0,1,.333.334v1.668A0.328,0.328,0,0,1,653.241,410.9Zm2.775-2.836a8.033,8.033,0,0,0-8.029,0,7.953,7.953,0,0,0-2.911,2.914,8.067,8.067,0,0,0,0,8.04,7.953,7.953,0,0,0,2.911,2.914,8.04,8.04,0,0,0,8.029,0,7.968,7.968,0,0,0,2.911-2.914,8.067,8.067,0,0,0,0-8.04A7.968,7.968,0,0,0,656.016,408.065Z" transform="translate(-644 -407)"/>
</svg>
