<svg xmlns="http://www.w3.org/2000/svg" width="24" height="23" viewBox="0 0 24 23">
  <defs>
    <style>
      .cls-1 {
        fill: #fff;
        fill-rule: evenodd;
      }
    </style>
  </defs>
  <path id="close.svg" class="cls-1" d="M1174.15,294.007l-6.9,6.7,6.9,6.7a2.76,2.76,0,0,1,0,4.078,6.162,6.162,0,0,1-1.8.583,3.689,3.689,0,0,1-2.4-.583l-6.9-6.7-6.9,6.7a6.162,6.162,0,0,1-1.8.583,3.689,3.689,0,0,1-2.4-.583,2.76,2.76,0,0,1,0-4.078l6.9-6.7-6.9-6.7a2.761,2.761,0,0,1,0-4.079,2.962,2.962,0,0,1,4.2,0l6.9,6.7,6.9-6.7a2.962,2.962,0,0,1,4.2,0A2.761,2.761,0,0,1,1174.15,294.007Z" transform="translate(-1151.06 -289.062)"/>
</svg>
