<svg xmlns="http://www.w3.org/2000/svg" width="24.38" height="16.876" viewBox="0 0 24.38 16.876">
  <defs>
    <style>
      .cls-1 {
        fill: #afafaf;
        fill-rule: evenodd;
      }
    </style>
  </defs>
  <path id="email.svg" class="cls-1" d="M1089.37,354.309a0.14,0.14,0,0,0,0,.175l4.4,4.688a0.66,0.66,0,0,1,0,1.054,0.747,0.747,0,0,1-.53.235,0.731,0.731,0,0,1-.53-0.235l-4.39-4.687q-0.06-.117-0.18,0l-1.05,1.113a4.4,4.4,0,0,1-3.4,1.407,4.653,4.653,0,0,1-3.4-1.465l-1.06-1.055c-0.07-.078-0.13-0.078-0.17,0l-4.4,4.687a0.7,0.7,0,0,1-1.05,0,0.66,0.66,0,0,1,0-1.054l4.39-4.688a0.14,0.14,0,0,0,0-.175l-6.32-6.446a0.077,0.077,0,0,0-.12,0,0.171,0.171,0,0,0-.06.117v12.833a1.81,1.81,0,0,0,1.87,1.875H1094a1.811,1.811,0,0,0,1.88-1.875V347.98a0.227,0.227,0,0,0-.06-0.117,0.077,0.077,0,0,0-.12,0Zm-3.4,1.289,9.2-9.375a2.033,2.033,0,0,0-1.17-.411h-20.63a1.878,1.878,0,0,0-1.17.411l9.2,9.375a3.126,3.126,0,0,0,2.29.937,2.965,2.965,0,0,0,2.28-.937h0Z" transform="translate(-1071.5 -345.812)"/>
</svg>
