<svg xmlns="http://www.w3.org/2000/svg" width="20" height="26" viewBox="0 0 20 26">
  <defs>
    <style>
      .cls-1 {
        fill: #afafaf;
        fill-rule: evenodd;
      }
    </style>
  </defs>
  <path id="password.svg" class="cls-1" d="M1091.5,473h-15a2.5,2.5,0,0,1-2.5-2.476V458.143a2.5,2.5,0,0,1,2.5-2.476h1.25v-2.476a6.25,6.25,0,0,1,12.5,0v2.476h1.25a2.492,2.492,0,0,1,2.5,2.476v12.381A2.492,2.492,0,0,1,1091.5,473Zm-7.5-6.19a2.477,2.477,0,1,0-2.5-2.477A2.493,2.493,0,0,0,1084,466.81Zm3.87-13.619a3.875,3.875,0,0,0-7.75,0v2.476h7.75v-2.476Z" transform="translate(-1074 -447)"/>
</svg>
