<svg id="Phone.svg" xmlns="http://www.w3.org/2000/svg" width="22" height="22" viewBox="0 0 22 22">
  <defs>
    <style>
      .cls-1 {
        fill: none;
      }

      .cls-1, .cls-2 {
        fill-rule: evenodd;
      }

      .cls-2 {
        fill: #9d9d9d;
      }
    </style>
  </defs>
  <path id="Path_696" data-name="Path 696" class="cls-1" d="M933.366,1781.15h22v22h-22v-22Z" transform="translate(-933.375 -1781.16)"/>
  <path id="Path_697" data-name="Path 697" class="cls-2" d="M939.434,1791.04a13.86,13.86,0,0,0,6.041,6.04l2.017-2.01a0.906,0.906,0,0,1,.935-0.22,10.428,10.428,0,0,0,3.272.52,0.919,0.919,0,0,1,.917.92v3.2a0.917,0.917,0,0,1-.917.91,15.578,15.578,0,0,1-15.584-15.58,0.92,0.92,0,0,1,.918-0.92h3.208a0.918,0.918,0,0,1,.916.92,10.446,10.446,0,0,0,.523,3.27,0.932,0.932,0,0,1-.229.94Z" transform="translate(-933.375 -1781.16)"/>
</svg>
