<svg xmlns="http://www.w3.org/2000/svg" width="16" height="18" viewBox="0 0 16 18">
  <defs>
    <style>
      .cls-1 {
        fill: #2a3487;
        fill-rule: evenodd;
      }
    </style>
  </defs>
  <path id="quote.svg" class="cls-1" d="M1293.67,526.65l-1.34,1.35-1.33-1.35-1.33,1.35-1.34-1.35L1287,528l-1.33-1.35-1.34,1.35-1.33-1.35-1.33,1.35-1.34-1.35L1279,528V510l1.33,1.35,1.34-1.35,1.33,1.35,1.33-1.35,1.34,1.35L1287,510l1.33,1.35,1.34-1.35,1.33,1.35,1.33-1.35,1.34,1.35L1295,510v18Zm-1.34-12.15h-10.66v1.8h10.66v-1.8Zm0,3.6h-10.66v1.8h10.66v-1.8Zm0,3.6h-10.66v1.8h10.66v-1.8Z" transform="translate(-1279 -510)"/>
</svg>
