<svg xmlns="http://www.w3.org/2000/svg" width="24" height="24" viewBox="0 0 24 24">
  <defs>
    <style>
      .cls-1 {
        fill: #2c3487;
        fill-rule: evenodd;
      }
    </style>
  </defs>
  <path id="settings_1354" data-name="settings 1354" class="cls-1" d="M1220.93,109.922l-2.45,4.222a0.6,0.6,0,0,1-.74.241l-3.06-1.206a11.429,11.429,0,0,1-2.08,1.206l-0.49,3.136a0.659,0.659,0,0,1-.61.483h-4.9a0.554,0.554,0,0,1-.61-0.483l-0.49-3.136a11.429,11.429,0,0,1-2.08-1.206l-3.06,1.206a0.7,0.7,0,0,1-.74-0.12l-2.45-4.222a0.571,0.571,0,0,1,.12-0.724l2.58-2.051a3.463,3.463,0,0,1-.13-1.206c0-.483.13-0.845,0.13-1.207l-2.58-1.93a0.668,0.668,0,0,1-.24-0.723l2.45-4.222a0.765,0.765,0,0,1,.86-0.241l2.93,1.206a9.319,9.319,0,0,1,2.09-1.206l0.49-3.257a0.649,0.649,0,0,1,.61-0.483h4.9a0.491,0.491,0,0,1,.49.6l0.49,3.136a11.755,11.755,0,0,1,2.08,1.206l3.06-1.206a0.682,0.682,0,0,1,.73.121l2.45,4.222a0.571,0.571,0,0,1-.12.724l-2.57,2.05a3.741,3.741,0,0,1,.12,1.207c0,0.482-.12.844-0.12,1.206l2.81,1.93A0.539,0.539,0,0,1,1220.93,109.922Zm-12-8.082a4.222,4.222,0,1,0,4.28,4.222A4.308,4.308,0,0,0,1208.93,101.84Z" transform="translate(-1197.03 -94)"/>
</svg>
