<svg id="sort-incre.svg" xmlns="http://www.w3.org/2000/svg" width="17" height="16" viewBox="0 0 17 16">
  <defs>
    <style>
      .cls-1, .cls-2 {
        fill-rule: evenodd;
      }

      .cls-1 {
        opacity: 0.3;
      }

      .cls-2 {
        fill: #c11f2f;
      }
    </style>
  </defs>
  <path id="fa-exchange_xf0ec_2439" data-name="fa-exchange [&amp;#xf0ec;] 2439" class="cls-1" d="M457.4,330.107a0.343,0.343,0,0,0-.113.255v11.3h-2.286a0.381,0.381,0,0,0-.268.107,0.357,0.357,0,0,0-.006.514l3.81,3.616a0.381,0.381,0,0,0,.274.1,0.363,0.363,0,0,0,.261-0.1l3.81-3.605a0.413,0.413,0,0,0,.119-0.271,0.342,0.342,0,0,0-.113-0.254,0.378,0.378,0,0,0-.268-0.107h-2.286v-11.3a0.339,0.339,0,0,0-.113-0.255,0.377,0.377,0,0,0-.267-0.107h-2.286A0.378,0.378,0,0,0,457.4,330.107Z" transform="translate(-446 -330)"/>
  <path id="fa-exchange_xf0ec_2439-2" data-name="fa-exchange [&amp;#xf0ec;] 2439" class="cls-2" d="M449.746,330.1l-3.627,3.6a0.425,0.425,0,0,0-.114.272,0.353,0.353,0,0,0,.1.26,0.361,0.361,0,0,0,.262.1h2.182v11.3a0.35,0.35,0,0,0,.109.255,0.354,0.354,0,0,0,.256.107H451.1a0.356,0.356,0,0,0,.257-0.107,0.352,0.352,0,0,0,.107-0.255v-11.3h2.183a0.367,0.367,0,0,0,.365-0.361,0.355,0.355,0,0,0-.1-0.26l-3.64-3.616a0.386,0.386,0,0,0-.523,0h0Z" transform="translate(-446 -330)"/>
</svg>
