<svg xmlns="http://www.w3.org/2000/svg" xmlns:xlink="http://www.w3.org/1999/xlink" width="57.218" height="62.84" viewBox="0 0 57.218 62.84">
  <defs>
    <linearGradient id="linear-gradient" x1="0.5" x2="0.5" y2="1" gradientUnits="objectBoundingBox">
      <stop offset="0" stop-color="#c11f2f"/>
      <stop offset="1" stop-color="#103380"/>
    </linearGradient>
  </defs>
  <g id="Group_5831" data-name="Group 5831" transform="translate(0 0)">
    <g id="Group_5830" data-name="Group 5830" transform="translate(0)">
      <path id="Path_2900" data-name="Path 2900" d="M72.744,13.865,45.03.091a.871.871,0,0,0-.777,0L16.537,13.865a.923.923,0,0,0-.505.829V48.145a.923.923,0,0,0,.505.829L44.252,62.748a.871.871,0,0,0,.778,0L72.744,48.974a.923.923,0,0,0,.505-.829V14.694A.923.923,0,0,0,72.744,13.865ZM44.641,1.942,70.3,14.694l-7.438,3.7a.883.883,0,0,0-.151-.1L37.226,5.627ZM35.207,6.668,60.827,19.4,55.58,22.009,29.97,9.281Zm26.22,14.479v9.64l-4.9,2.436v-9.64Zm10.035,26.42L45.535,60.453V29.046l6.184-3.074a.933.933,0,0,0,.416-1.229.883.883,0,0,0-1.194-.429l-6.3,3.132-2.479-1.232a.883.883,0,0,0-1.194.429.933.933,0,0,0,.416,1.229l2.363,1.174V60.453L17.82,47.567V16.161l19.743,9.812a.869.869,0,0,0,.388.092.892.892,0,0,0,.806-.521.933.933,0,0,0-.416-1.229L18.983,14.694l8.882-4.415L54.725,23.628l.012.016V34.691a.927.927,0,0,0,.419.78.872.872,0,0,0,.864.049l6.69-3.325a.923.923,0,0,0,.505-.829V20.259l8.246-4.1V47.568Z" transform="translate(-16.032 0.001)" fill="url(#linear-gradient)"/>
    </g>
  </g>
</svg>
