<svg xmlns="http://www.w3.org/2000/svg" xmlns:xlink="http://www.w3.org/1999/xlink" width="56.277" height="61.079" viewBox="0 0 56.277 61.079">
  <defs>
    <linearGradient id="linear-gradient" x1="0.5" x2="0.5" y2="1" gradientUnits="objectBoundingBox">
      <stop offset="0" stop-color="#c11f2f"/>
      <stop offset="1" stop-color="#103380"/>
    </linearGradient>
  </defs>
  <g id="bell" transform="translate(0.5 0.5)">
    <path id="Path_2886" data-name="Path 2886" d="M50.045,40.938h0c-1.728,0-2.7-.9-3.261-3a38.611,38.611,0,0,1-.61-8.554c-.024-3.992-.052-8.517-1.044-12.564a.892.892,0,0,0-1.734.425c.943,3.843.969,8.257.993,12.15a39.547,39.547,0,0,0,.67,9,7.169,7.169,0,0,0,1.173,2.538H9.048A7.169,7.169,0,0,0,10.221,38.4a39.521,39.521,0,0,0,.67-9c.032-5.209.068-11.114,2.2-15.632,2.4-5.086,7.158-7.559,14.549-7.559A19.013,19.013,0,0,1,37.51,8.475a11.976,11.976,0,0,1,4.849,5.668.892.892,0,0,0,1.634-.718,13.889,13.889,0,0,0-5.56-6.478,16.934,16.934,0,0,0-5.5-2.042,5.314,5.314,0,0,0-10.6,0,17.094,17.094,0,0,0-5.277,1.911,13.76,13.76,0,0,0-5.588,6.188c-2.3,4.875-2.337,10.988-2.369,16.382a38.583,38.583,0,0,1-.61,8.554c-.558,2.1-1.534,2.995-3.261,3h0a5.232,5.232,0,0,0,0,10.463h5.648a.892.892,0,1,0,0-1.784H5.231a3.447,3.447,0,0,1,0-6.894H50.046a3.447,3.447,0,0,1,0,6.894h-35.6a.892.892,0,0,0,0,1.784h3.663a9.569,9.569,0,0,0,19.055,0h12.88a5.232,5.232,0,0,0,0-10.463ZM27.638,1.784A3.537,3.537,0,0,1,31.1,4.62a30.606,30.606,0,0,0-6.924,0A3.536,3.536,0,0,1,27.638,1.784Zm0,56.51A7.8,7.8,0,0,1,19.9,51.4H35.372A7.8,7.8,0,0,1,27.638,58.294Zm0,0" stroke="#c11f2f" stroke-width="1" fill="url(#linear-gradient)"/>
    <path id="Path_2887" data-name="Path 2887" d="M354.177,35.064a11,11,0,0,1,3.009,2.871,16.3,16.3,0,0,1,3,9.951.848.848,0,1,0,1.7,0,17.987,17.987,0,0,0-3.391-11.041A12.39,12.39,0,0,0,355,33.581a.848.848,0,0,0-.823,1.483Zm0,0" transform="translate(-311.546 -29.744)" stroke="#c11f2f" stroke-width="1" fill="url(#linear-gradient)"/>
    <path id="Path_2888" data-name="Path 2888" d="M411.925,38.077c.136.089,3.341,2.24,3.341,7.651a.848.848,0,0,0,1.7,0c0-6.382-3.954-8.972-4.122-9.079a.848.848,0,0,0-.914,1.428Zm0,0" transform="translate(-362.9 -32.446)" stroke="#c11f2f" stroke-width="1" fill="url(#linear-gradient)"/>
    <path id="Path_2889" data-name="Path 2889" d="M45.2,48.732a.848.848,0,0,0,.848-.848,16.3,16.3,0,0,1,3-9.951,11.032,11.032,0,0,1,3.009-2.871.848.848,0,0,0-.822-1.483,12.39,12.39,0,0,0-3.489,3.263,17.99,17.99,0,0,0-3.391,11.041A.848.848,0,0,0,45.2,48.732Zm0,0" transform="translate(-39.404 -29.743)" stroke="#c11f2f" stroke-width="1" fill="url(#linear-gradient)"/>
    <path id="Path_2890" data-name="Path 2890" d="M11.738,46.576a.847.847,0,0,0,.847-.847c0-5.407,3.2-7.559,3.341-7.651a.848.848,0,0,0-.914-1.428c-.168.107-4.122,2.7-4.122,9.079A.848.848,0,0,0,11.738,46.576Zm0,0" transform="translate(-9.677 -32.446)" stroke="#c11f2f" stroke-width="1" fill="url(#linear-gradient)"/>
  </g>
</svg>
