<svg id="twitter-social-logotype.svg" xmlns="http://www.w3.org/2000/svg" width="29.998" height="30" viewBox="0 0 29.998 30">
  <defs>
    <style>
      .cls-1 {
        fill: #2c3487;
        fill-rule: evenodd;
      }
    </style>
  </defs>
  <path id="Path_225" data-name="Path 225" class="cls-1" d="M987.565,15.541a15,15,0,1,0,14.995,15A15,15,0,0,0,987.565,15.541Zm9.07,11c0.007,0.177.011,0.354,0.011,0.533a13.029,13.029,0,0,1-20.058,10.977,0.11,0.11,0,0,1-.044-0.131,0.111,0.111,0,0,1,.117-0.073,9.04,9.04,0,0,0,1.071.063,8.94,8.94,0,0,0,5.33-1.738,4.651,4.651,0,0,1-4.038-3.216,0.11,0.11,0,0,1,.126-0.143,4.471,4.471,0,0,0,1.547.022,4.667,4.667,0,0,1-3.271-4.445V28.33a0.112,0.112,0,0,1,.166-0.095,4.437,4.437,0,0,0,1.623.525,4.659,4.659,0,0,1-1.122-5.98,0.113,0.113,0,0,1,.088-0.055,0.107,0.107,0,0,1,.094.041,12.835,12.835,0,0,0,9.137,4.7,4.725,4.725,0,0,1-.089-0.916,4.656,4.656,0,0,1,8.007-3.229,8.956,8.956,0,0,0,2.79-1.076,0.109,0.109,0,0,1,.125.008,0.112,0.112,0,0,1,.038.121,4.648,4.648,0,0,1-1.637,2.3,8.955,8.955,0,0,0,2.1-.636,0.11,0.11,0,0,1,.13.03,0.112,0.112,0,0,1,.007.133A9.282,9.282,0,0,1,996.635,26.541Z" transform="translate(-972.562 -15.531)"/>
</svg>
