<svg xmlns="http://www.w3.org/2000/svg" width="68.96" height="55.344" viewBox="0 0 68.96 55.344">
  <defs>
    <style>
      .cls-1 {
        fill: #afafaf;
        fill-rule: evenodd;
      }
    </style>
  </defs>
  <path id="upload_image.svg" data-name="upload image.svg" class="cls-1" d="M1149.17,661.687h-44a9.049,9.049,0,0,1-9.17-9.111V623.423a9.049,9.049,0,0,1,9.17-9.11h44a9.046,9.046,0,0,1,9.16,9.11v29.153A9.047,9.047,0,0,1,1149.17,661.687Zm-49.5-9.111a5.618,5.618,0,0,0,5.5,5.467h44a5.624,5.624,0,0,0,5.5-5.467V648.5c-9.12-.372-14.63-3.367-19.44-5.758-4.4-2.55-8.8-4.737-15.76-4.737-10.32,0-18.08,7.6-19.8,9.438v5.138Zm55-29.152a5.624,5.624,0,0,0-5.5-5.467h-44a5.617,5.617,0,0,0-5.5,5.466v19c3.86-3.342,10.86-8.072,19.8-8.072,8.06,0,12.83,2.551,17.6,5.1,4.44,2.38,9.25,5.043,17.6,5.4V623.424Zm-11,1.457a5.466,5.466,0,1,1-5.5,5.466A5.624,5.624,0,0,1,1143.67,624.881Zm0,7.288a1.822,1.822,0,1,0-1.84-1.822A1.724,1.724,0,0,0,1143.67,632.169ZM1074,580h41v51h-41V580Zm32.69,37.824h-5.77v5.735a1.92,1.92,0,0,1-3.84,0v-5.735h-5.77a1.912,1.912,0,1,1,0-3.824h5.77v-5.735a1.92,1.92,0,0,1,3.84,0V614h5.77A1.912,1.912,0,1,1,1106.69,617.824Z" transform="translate(-1089.38 -606.344)"/>
</svg>
