<svg xmlns="http://www.w3.org/2000/svg" width="50" height="65" viewBox="0 0 50 65">
  <defs>
    <style>
      .cls-1 {
        fill: #afafaf;
        fill-rule: evenodd;
      }
    </style>
  </defs>
  <path id="upload-document.svg" class="cls-1" d="M1142.38,868h-30.77a9.493,9.493,0,0,1-9.61-9.559V812.559a9.493,9.493,0,0,1,9.61-9.559h13.85a8.081,8.081,0,0,1,4.23,1.529l20.77,20.648a5.7,5.7,0,0,1,1.54,4.2v29.059A9.495,9.495,0,0,1,1142.38,868Zm-13.46-58.882v11.088a5.9,5.9,0,0,0,5.77,5.735h11.16Zm19.23,20.646h-13.46a9.492,9.492,0,0,1-9.61-9.558V806.823h-13.47a5.9,5.9,0,0,0-5.76,5.736v45.882a5.9,5.9,0,0,0,5.76,5.736h30.77a5.9,5.9,0,0,0,5.77-5.736V829.764Zm-13.46,16.06h-5.77v5.735a1.92,1.92,0,0,1-3.84,0v-5.735h-5.77a1.912,1.912,0,1,1,0-3.824h5.77v-5.735a1.92,1.92,0,0,1,3.84,0V842h5.77A1.912,1.912,0,1,1,1134.69,845.824Z" transform="translate(-1102 -803)"/>
</svg>
